<?xml version="1.0" standalone="no"?>
<!DOCTYPE svg PUBLIC "-//W3C//DTD SVG 20010904//EN"
 "http://www.w3.org/TR/2001/REC-SVG-20010904/DTD/svg10.dtd">
<svg version="1.0" xmlns="http://www.w3.org/2000/svg"
 width="568.000000pt" height="568.000000pt" viewBox="0 0 568.000000 568.000000"
 preserveAspectRatio="xMidYMid meet">
<metadata>
Created by potrace 1.16, written by Peter Selinger 2001-2019
</metadata>
<g transform="translate(0.000000,568.000000) scale(0.100000,-0.100000)"
fill="#000000" stroke="none">
<path d="M1 4388 c1 -711 5 -1260 9 -1220 25 234 99 515 206 782 24 60 162
331 179 350 7 8 21 31 30 50 10 19 21 37 24 40 3 3 27 37 54 76 26 39 55 80
65 92 29 35 46 55 85 107 63 84 316 327 432 417 198 153 407 278 605 363 47
20 94 40 105 45 143 66 502 154 730 180 33 4 -522 8 -1232 8 l-1293 2 1 -1292z"/>
<path d="M3155 5669 c318 -41 567 -108 825 -221 47 -20 230 -112 265 -132 107
-62 125 -73 250 -160 173 -121 429 -363 568 -538 162 -204 302 -441 397 -668
17 -41 35 -84 40 -95 9 -22 48 -137 75 -223 9 -30 25 -95 36 -145 18 -83 27
-133 57 -332 6 -39 10 402 11 1233 l1 1292 -1292 -1 c-711 -1 -1266 -5 -1233
-10z"/>
<path d="M2385 4931 c-16 -4 -40 -13 -51 -19 -29 -16 -83 -78 -99 -116 -27
-61 -64 -191 -55 -194 5 -2 6 -10 3 -18 -3 -8 -3 -14 1 -14 12 0 44 88 61 165
9 44 24 91 32 105 24 41 87 80 128 80 21 0 34 4 30 10 -7 11 -7 11 -50 1z"/>
<path d="M2844 4795 c-12 -9 -14 -14 -6 -15 8 0 10 -5 6 -12 -5 -7 -2 -9 9 -5
11 4 14 2 10 -9 -4 -11 -9 -12 -19 -3 -10 8 -19 7 -36 -5 l-22 -16 30 0 c16 0
35 -5 41 -11 17 -17 5 -38 -19 -31 -15 3 -19 1 -14 -7 4 -6 11 -9 15 -6 14 8
74 -38 96 -72 11 -18 29 -33 40 -34 19 -1 19 -2 1 -6 -19 -5 -19 -17 -3 -115
2 -13 2 -18 0 -12 -4 12 -43 7 -43 -5 0 -3 6 -13 13 -22 11 -15 24 -18 69 -20
9 0 16 -6 14 -12 -1 -7 -1 -9 1 -4 3 4 13 7 24 7 12 0 16 -5 13 -15 -5 -11 -2
-13 10 -9 9 3 16 14 16 23 0 9 6 27 13 41 14 27 12 54 -4 44 -6 -3 -19 4 -29
16 -13 15 -25 20 -39 15 -19 -6 -20 -4 -11 19 6 16 6 27 0 31 -6 4 -10 11 -10
16 0 6 14 -1 31 -15 17 -14 35 -26 40 -26 11 0 2 39 -12 55 -17 18 -9 28 9 12
26 -24 36 -21 18 5 -23 33 -19 47 5 19 18 -22 21 -23 35 -9 14 14 14 18 -1 41
-9 15 -14 31 -10 37 3 5 0 10 -9 10 -8 0 -16 6 -19 13 -3 9 -7 9 -19 -1 -18
-14 -48 -6 -48 14 0 7 -10 20 -22 28 -13 9 -17 16 -9 16 11 0 11 3 0 16 -12
15 -11 16 10 9 14 -4 21 -3 18 3 -12 19 -107 22 -141 5 -29 -15 -30 -15 -17 0
17 21 2 22 -25 2z m196 -125 c0 -5 -4 -10 -10 -10 -5 0 -10 5 -10 10 0 6 5 10
10 10 6 0 10 -4 10 -10z m71 -22 l23 -33 -27 24 c-15 14 -27 28 -27 33 0 15 8
8 31 -24z"/>
<path d="M2705 4790 c-3 -5 1 -10 10 -10 9 0 13 5 10 10 -3 6 -8 10 -10 10 -2
0 -7 -4 -10 -10z"/>
<path d="M2779 4788 c-9 -31 -6 -38 14 -32 28 8 30 11 22 23 -5 9 -34 16 -36
9z"/>
<path d="M2734 4762 c4 -6 -10 -10 -39 -10 -25 1 -51 -5 -58 -12 -10 -10 -6
-11 18 -5 17 4 47 7 68 6 27 -1 38 2 35 10 -2 7 -10 15 -18 17 -7 3 -10 0 -6
-6z"/>
<path d="M3040 4727 c0 -8 7 -17 15 -21 8 -3 15 -2 15 3 0 5 -7 14 -15 21 -12
10 -15 10 -15 -3z"/>
<path d="M2681 4712 c-14 -10 -12 -11 12 -6 15 3 27 2 27 -4 0 -5 -14 -12 -31
-16 -17 -3 -28 -10 -25 -15 9 -14 46 -1 59 20 7 11 20 19 30 19 10 0 16 4 12
10 -8 13 -64 8 -84 -8z"/>
<path d="M2423 4709 c-16 -6 -21 -16 -21 -39 1 -16 -2 -33 -5 -37 -4 -3 -7 2
-7 12 0 14 -3 15 -15 5 -8 -6 -13 -17 -12 -23 1 -7 -7 -12 -18 -12 -11 0 -30
-9 -43 -21 l-22 -21 25 -13 c13 -7 27 -21 31 -32 3 -10 14 -18 25 -18 10 0 19
-4 19 -8 0 -13 50 -13 50 1 0 7 5 5 10 -4 9 -15 35 -18 82 -10 3 1 12 17 18
37 10 30 10 38 -1 45 -11 7 -10 9 4 9 9 0 17 6 17 14 0 7 7 19 15 26 19 16 19
26 -1 34 -8 3 -12 2 -9 -3 3 -5 1 -12 -5 -16 -5 -3 -10 -15 -10 -26 0 -10 -3
-19 -8 -19 -4 0 -5 21 -3 48 l3 47 -20 -19 c-12 -10 -28 -16 -37 -12 -10 4
-19 -3 -27 -19 -8 -18 -17 -24 -30 -19 -12 3 -17 1 -16 -6 2 -7 -3 -15 -10
-17 -17 -7 -11 16 11 39 9 10 17 26 17 36 0 10 5 23 12 30 16 16 7 21 -19 11z"/>
<path d="M2635 4710 c3 -5 10 -10 16 -10 5 0 9 5 9 10 0 6 -7 10 -16 10 -8 0
-12 -4 -9 -10z"/>
<path d="M3410 4700 c0 -5 4 -10 9 -10 6 0 13 5 16 10 3 6 -1 10 -9 10 -9 0
-16 -4 -16 -10z"/>
<path d="M2620 4690 c0 -5 5 -10 10 -10 6 0 10 5 10 10 0 6 -4 10 -10 10 -5 0
-10 -4 -10 -10z"/>
<path d="M3336 4692 c-2 -4 4 -8 14 -8 10 0 16 4 14 8 -3 4 -9 8 -14 8 -5 0
-11 -4 -14 -8z"/>
<path d="M2580 4670 c0 -5 5 -10 11 -10 5 0 7 5 4 10 -3 6 -8 10 -11 10 -2 0
-4 -4 -4 -10z"/>
<path d="M3260 4660 c0 -5 5 -10 10 -10 6 0 10 5 10 10 0 6 -4 10 -10 10 -5 0
-10 -4 -10 -10z"/>
<path d="M2596 4622 c-34 -50 -33 -77 2 -32 15 19 35 43 45 52 16 17 16 18 -2
18 -10 0 -30 -17 -45 -38z"/>
<path d="M3275 4640 c-18 -8 -17 -9 8 -9 16 -1 26 3 22 9 -3 6 -7 10 -8 9 -1
0 -11 -4 -22 -9z"/>
<path d="M2775 4608 c-24 -14 -35 -29 -29 -40 3 -4 -1 -5 -9 -2 -10 3 -18 -5
-26 -27 -16 -47 -14 -53 14 -35 35 23 40 20 10 -8 -28 -26 -16 -41 20 -23 11
5 17 6 13 2 -4 -4 -1 -13 5 -20 18 -19 47 10 47 47 0 19 9 37 27 52 26 23 26
24 6 30 -12 4 -24 13 -27 21 -6 18 -24 19 -51 3z m22 -84 c-3 -3 -12 -4 -19
-1 -8 3 -5 6 6 6 11 1 17 -2 13 -5z m3 -44 c0 -5 -4 -10 -10 -10 -5 0 -10 5
-10 10 0 6 5 10 10 10 6 0 10 -4 10 -10z"/>
<path d="M3244 4594 c-2 -8 -6 -21 -9 -30 -3 -10 -11 -13 -25 -9 -16 5 -20 2
-20 -14 0 -14 -5 -19 -16 -14 -10 3 -14 13 -11 25 7 24 -18 35 -39 18 -16 -14
-11 -69 9 -81 5 -4 6 -13 1 -20 -6 -11 -5 -12 7 -3 17 14 55 12 71 -4 7 -7 18
-12 24 -12 7 0 25 -16 40 -35 14 -19 35 -35 45 -35 12 0 16 -5 13 -15 -6 -16
33 -37 50 -27 5 3 6 0 2 -6 -4 -7 -2 -12 4 -12 6 0 23 -11 38 -25 41 -38 52
-32 32 19 -12 33 -7 33 28 -2 25 -25 33 -27 51 -18 17 9 19 14 9 24 -7 7 -19
12 -27 12 -11 0 -11 3 4 14 17 12 17 13 -7 19 -13 4 -40 2 -58 -3 -19 -5 -36
-7 -39 -5 -8 9 7 17 32 19 17 1 23 5 19 16 -5 12 -3 13 10 3 20 -17 25 -10 20
33 -3 25 -10 38 -23 41 -27 7 -24 22 4 16 18 -4 19 -3 7 6 -8 6 -25 11 -38 11
-13 0 -21 4 -18 8 12 21 -14 35 -65 34 l-54 0 37 11 38 12 -71 21 c-58 18 -71
19 -75 8z m61 -73 c-3 -6 -11 -11 -17 -11 -6 0 -6 6 2 15 14 17 26 13 15 -4z
m85 -30 c19 -5 27 -9 17 -10 -13 -1 -17 -6 -13 -18 3 -10 1 -25 -4 -33 -8 -13
-10 -12 -10 3 0 9 -6 17 -12 17 -9 0 -8 3 2 10 24 15 3 23 -31 11 -27 -9 -30
-9 -19 4 9 10 9 15 1 15 -6 0 -11 4 -11 9 0 10 24 8 80 -8z m44 -96 c3 -8 1
-15 -3 -15 -5 0 -11 7 -15 15 -3 8 -1 15 3 15 5 0 11 -7 15 -15z m-39 -5 c-3
-5 -12 -10 -18 -10 -7 0 -6 4 3 10 19 12 23 12 15 0z"/>
<path d="M3446 4575 c4 -8 12 -15 20 -15 20 0 17 7 -6 20 -16 9 -18 8 -14 -5z"/>
<path d="M2133 4541 c-11 -10 -42 -31 -69 -45 -63 -34 -41 -34 30 0 59 28 101
64 74 64 -8 0 -23 -9 -35 -19z"/>
<path d="M3585 4530 c-3 -5 -3 -15 1 -21 6 -11 23 6 24 24 0 10 -18 9 -25 -3z"/>
<path d="M2840 4519 c0 -5 5 -7 10 -4 6 3 10 8 10 11 0 2 -4 4 -10 4 -5 0 -10
-5 -10 -11z"/>
<path d="M3616 4481 c-3 -4 3 -16 13 -25 11 -10 21 -13 25 -7 3 5 -2 12 -11
14 -17 4 -17 5 0 6 10 0 15 6 12 11 -8 12 -32 13 -39 1z"/>
<path d="M3155 4450 c3 -5 -1 -10 -9 -10 -22 0 -29 -19 -14 -37 11 -15 11 -16
-4 -10 -13 5 -19 0 -24 -18 -12 -49 31 -63 64 -20 17 21 21 23 32 10 7 -8 9
-15 4 -16 -5 0 0 -4 11 -9 18 -7 18 -9 -10 -20 -27 -10 -28 -12 -11 -22 13 -7
20 -7 25 1 13 20 41 1 41 -28 0 -26 11 -37 60 -55 8 -3 -2 -3 -23 0 -26 3 -37
2 -32 -5 3 -6 14 -11 24 -11 9 0 26 -7 37 -15 21 -16 64 -20 64 -6 0 5 -12 12
-27 14 -25 4 -25 4 5 6 22 0 32 5 29 14 -2 6 -11 11 -20 11 -13 -1 -14 2 -4
17 9 15 9 24 0 39 -11 17 -10 18 5 13 9 -3 0 6 -21 21 -21 14 -42 26 -47 26
-5 0 -13 6 -17 13 -4 7 -20 20 -35 30 -16 10 -28 22 -28 28 0 6 5 7 10 4 6 -3
10 -1 10 5 0 7 -7 10 -15 6 -9 -3 -20 3 -27 14 -7 11 -23 20 -36 20 -13 0 -20
-4 -17 -10z"/>
<path d="M1913 4443 c9 -2 23 -2 30 0 6 3 -1 5 -18 5 -16 0 -22 -2 -12 -5z"/>
<path d="M2155 4420 c-3 -5 -1 -10 4 -10 6 0 11 5 11 10 0 6 -2 10 -4 10 -3 0
-8 -4 -11 -10z"/>
<path d="M3536 4373 c11 -10 19 -23 17 -29 -5 -14 25 -27 39 -18 7 4 4 10 -6
16 -9 5 -16 16 -16 23 0 8 -4 15 -9 15 -5 0 -18 3 -28 6 -16 5 -15 3 3 -13z"/>
<path d="M3580 4300 c-8 -11 -21 -20 -30 -20 -12 -1 -11 -3 3 -11 13 -8 22 -7
34 3 14 11 16 10 11 -14 -6 -30 -2 -38 27 -54 10 -6 23 -26 28 -45 4 -19 15
-48 23 -66 7 -17 14 -40 14 -50 0 -11 11 -30 25 -43 13 -12 22 -26 19 -31 -2
-4 4 -12 13 -18 10 -5 15 -13 11 -17 -11 -10 21 -64 38 -64 8 0 25 5 36 11 21
11 21 12 -3 25 -18 10 -20 13 -7 14 9 0 20 -4 23 -10 8 -13 35 -13 35 -1 0 13
-29 41 -41 41 -6 0 -7 -4 -4 -10 9 -15 -4 -12 -21 4 -8 8 -14 22 -14 31 0 9
-11 27 -25 40 -29 30 -18 33 17 5 l25 -19 -5 24 c-2 14 -11 25 -18 25 -8 0
-13 4 -11 9 5 20 -56 81 -82 82 -22 1 -21 2 11 11 34 9 36 11 26 33 -12 27
-44 45 -34 20 3 -8 1 -15 -5 -15 -5 0 -14 12 -19 26 -13 34 -13 39 5 24 8 -6
18 -9 22 -7 9 6 49 -20 47 -31 -3 -17 10 -32 27 -32 28 0 24 30 -8 57 -14 13
-30 23 -35 23 -4 0 -8 11 -8 25 0 14 -7 28 -15 32 -25 9 -30 -5 -11 -26 10
-11 15 -25 11 -31 -4 -7 -14 -1 -27 15 -20 26 -53 34 -60 13 -2 -6 -10 -8 -16
-4 -7 4 -10 16 -7 27 8 25 -7 24 -25 -1z m147 -246 c-3 -3 -12 -4 -19 -1 -8 3
-5 6 6 6 11 1 17 -2 13 -5z"/>
<path d="M2045 4298 c-11 -6 -24 -16 -30 -22 -5 -7 -24 -21 -41 -33 -17 -12
-31 -28 -32 -35 -5 -57 -24 -89 -82 -144 -13 -13 -21 -26 -17 -30 9 -9 -42
-36 -54 -28 -5 3 -9 0 -9 -6 0 -6 7 -13 15 -16 8 -4 12 -10 9 -16 -3 -5 -13
-7 -22 -3 -9 3 -13 3 -9 -1 4 -4 -9 -25 -30 -46 -20 -21 -34 -41 -30 -44 4 -4
13 -2 20 5 11 9 17 8 26 -3 8 -10 9 -16 2 -21 -6 -3 -22 -30 -36 -60 -14 -29
-34 -63 -44 -76 -22 -29 -31 -73 -19 -91 7 -10 8 -10 7 2 -3 21 11 51 21 45 9
-6 2 -44 -13 -62 -5 -7 -7 -22 -4 -33 3 -11 1 -35 -3 -55 -6 -27 -5 -35 6 -35
21 0 -22 -57 -48 -63 -15 -4 -18 -1 -13 14 4 11 2 19 -4 19 -6 0 -11 -6 -11
-14 0 -7 -13 -16 -30 -19 -30 -6 -42 -27 -16 -27 27 0 34 -93 15 -210 -5 -36
-13 -82 -16 -103 -5 -33 -4 -37 13 -31 11 3 15 2 8 -3 -14 -10 -34 -69 -34
-98 0 -12 -7 -36 -16 -54 -9 -18 -13 -35 -10 -38 3 -4 6 -1 6 6 0 7 4 10 10 6
6 -4 6 -15 0 -31 -12 -30 -2 -55 12 -30 15 26 28 18 28 -16 l0 -32 17 23 c16
23 17 23 23 5 4 -10 3 -32 -3 -48 l-10 -29 -14 24 c-13 23 -14 22 -8 -13 3
-21 1 -47 -6 -59 -8 -16 -8 -23 0 -29 7 -3 9 -14 6 -22 -4 -9 -2 -19 4 -23 6
-3 11 -17 11 -31 0 -13 5 -24 10 -24 6 0 10 7 10 15 0 21 55 126 62 119 4 -3
9 4 13 15 3 12 15 21 26 21 24 0 24 -15 0 -39 -13 -13 -18 -27 -13 -43 6 -22
7 -21 12 7 5 27 9 30 40 30 30 -1 35 -5 42 -35 5 -19 13 -43 19 -53 10 -19 5
-37 -12 -37 -5 0 -9 7 -9 16 0 14 -3 14 -15 4 -22 -18 -18 -28 15 -35 16 -4
38 -19 50 -33 16 -22 21 -24 29 -13 8 12 13 11 30 -10 11 -13 20 -32 21 -41 0
-10 5 -18 10 -18 19 0 -25 155 -53 187 -10 12 -16 27 -12 33 4 6 0 19 -8 28
-22 24 -47 101 -47 142 1 31 2 33 14 18 7 -10 16 -18 20 -18 10 0 7 58 -5 65
-5 4 -14 17 -18 28 -10 27 4 168 18 176 5 3 11 42 12 86 2 44 6 85 10 90 3 6
9 28 13 50 3 22 11 63 17 90 6 28 13 96 16 153 4 87 2 102 -11 102 -9 0 -23
-15 -33 -32 l-18 -33 -3 54 c-2 32 3 69 12 92 17 41 16 38 47 183 11 54 36
134 55 178 19 44 34 86 34 93 0 11 31 57 83 123 12 15 -1 15 -28 0z m-253
-370 c-6 -6 -15 -8 -19 -4 -4 4 -1 11 7 16 19 12 27 3 12 -12z m-152 -707
c-16 -66 -36 -111 -51 -111 -8 0 -9 13 -4 38 4 20 7 46 7 56 -1 22 11 48 36
77 23 27 27 8 12 -60z m40 -151 c0 -5 -5 -10 -11 -10 -5 0 -7 5 -4 10 3 6 8
10 11 10 2 0 4 -4 4 -10z m-30 -251 c-11 -25 -30 -40 -30 -24 0 18 33 78 37
67 3 -7 0 -26 -7 -43z m70 -54 c0 -8 -4 -15 -10 -15 -5 0 -7 7 -4 15 4 8 8 15
10 15 2 0 4 -7 4 -15z m-90 -130 c0 -8 -4 -17 -10 -20 -6 -4 -10 5 -10 20 0
15 4 24 10 20 6 -3 10 -12 10 -20z"/>
<path d="M3396 4264 c-7 -28 5 -43 34 -44 8 0 26 -3 40 -6 18 -4 14 1 -15 18
-22 13 -40 29 -40 35 0 25 -13 22 -19 -3z"/>
<path d="M3485 4280 c3 -5 8 -10 11 -10 2 0 4 5 4 10 0 6 -5 10 -11 10 -5 0
-7 -4 -4 -10z"/>
<path d="M3537 4244 c6 -15 23 -19 23 -5 0 5 -7 11 -14 14 -10 4 -13 1 -9 -9z"/>
<path d="M3563 4206 c-9 -11 -5 -18 18 -35 17 -12 35 -34 40 -49 8 -21 12 -23
19 -12 6 10 5 16 -1 19 -8 2 -7 6 1 11 8 5 7 11 -5 23 -9 9 -13 22 -9 28 5 8
-1 10 -19 7 -18 -4 -24 -1 -20 9 7 17 -8 16 -24 -1z"/>
<path d="M3428 4198 c6 -6 18 -8 28 -6 14 3 12 5 -9 10 -19 3 -25 2 -19 -4z"/>
<path d="M3780 4145 c0 -22 37 -38 44 -19 3 8 2 12 -4 9 -6 -3 -10 -2 -10 3 0
6 -7 12 -15 16 -9 3 -15 0 -15 -9z"/>
<path d="M3690 3985 c0 -15 18 -40 24 -34 3 3 -1 14 -9 25 -8 10 -14 15 -15 9z"/>
<path d="M3660 3972 c0 -5 6 -17 14 -28 10 -14 11 -23 4 -32 -13 -15 27 -63
51 -61 13 1 12 2 -1 6 -10 2 -19 12 -19 21 -2 31 -4 37 -22 70 -17 31 -27 40
-27 24z"/>
<path d="M3840 3870 c-8 -4 -26 -12 -40 -18 -24 -9 -23 -10 17 -16 26 -5 50
-3 64 5 22 11 22 12 4 25 -21 16 -24 16 -45 4z"/>
<path d="M3804 3810 c7 -8 11 -21 8 -29 -5 -15 15 -31 41 -31 11 0 15 4 11 12
-5 8 -2 9 9 5 9 -3 19 -2 22 3 4 6 1 10 -6 10 -7 0 -5 6 6 13 14 11 15 16 5
22 -9 5 -15 4 -18 -3 -2 -7 -8 -12 -13 -12 -6 0 -8 4 -5 9 3 5 -12 11 -34 13
-34 3 -37 2 -26 -12z"/>
<path d="M3720 3802 c0 -14 40 -52 56 -52 13 0 13 3 -1 23 -8 13 -13 26 -11
28 3 3 -6 6 -19 7 -14 1 -25 -2 -25 -6z"/>
<path d="M4014 3783 c-15 -46 -46 -91 -82 -118 -22 -16 -47 -43 -57 -60 -9
-16 -24 -44 -34 -61 -10 -18 -38 -63 -64 -100 -44 -64 -47 -73 -44 -123 2 -35
-1 -58 -10 -67 -11 -11 -11 -18 -3 -35 7 -12 17 -40 24 -63 11 -37 15 -42 51
-47 22 -3 53 -11 68 -18 37 -14 34 -16 42 19 4 17 16 35 28 41 38 21 69 -40
82 -161 3 -30 8 -62 11 -72 3 -9 0 -19 -6 -23 -5 -3 -10 -16 -9 -28 0 -13 3
-16 6 -8 3 7 13 21 23 31 10 10 20 24 22 31 3 8 8 11 12 8 8 -7 -23 -96 -62
-178 l-30 -64 67 5 c57 4 120 23 109 33 -1 2 -29 -1 -62 -6 -32 -5 -61 -7 -64
-5 -6 6 0 8 83 27 58 14 60 15 87 69 15 30 27 65 27 78 1 12 10 39 21 59 14
27 20 56 20 103 l-1 65 -22 -26 c-12 -14 -40 -36 -62 -49 l-40 -23 25 28 c25
28 24 29 -27 8 -11 -4 -14 -3 -9 5 5 9 0 9 -20 2 -20 -8 -29 -8 -35 1 -9 15
13 39 35 39 33 0 106 25 106 36 0 6 8 11 18 10 24 -2 29 49 7 71 -10 9 -15 26
-12 40 2 12 -2 28 -9 34 -8 6 -14 23 -14 38 0 14 -14 49 -30 76 -41 70 -37 75
16 18 25 -26 42 -42 39 -35 -4 7 -1 19 5 27 10 12 7 17 -16 26 -25 10 -27 12
-10 18 17 6 16 9 -8 25 -20 12 -31 14 -40 7 -9 -7 -16 -7 -24 1 -15 15 -15 28
-1 28 5 0 7 -4 4 -10 -7 -11 18 -14 28 -3 4 3 21 8 39 10 45 5 54 18 27 37
-15 10 -25 12 -29 5 -4 -6 -11 -4 -19 5 -7 9 -24 14 -39 12 -15 -2 -21 -1 -14
1 8 3 11 11 8 20 -3 8 -6 21 -6 29 0 8 -9 14 -20 14 -25 0 -130 46 -130 57 0
5 5 14 11 20 6 6 14 27 19 47 8 37 4 50 -6 19z m109 -363 c3 -11 1 -18 -4 -14
-5 3 -9 12 -9 20 0 20 7 17 13 -6z m-126 -166 c-3 -3 -12 -4 -19 -1 -8 3 -5 6
6 6 11 1 17 -2 13 -5z m-67 -38 c0 -3 -4 -8 -10 -11 -5 -3 -10 -1 -10 4 0 6 5
11 10 11 6 0 10 -2 10 -4z m133 -163 c-7 -2 -19 -2 -25 0 -7 3 -2 5 12 5 14 0
19 -2 13 -5z m50 -10 c-7 -2 -13 -12 -13 -20 0 -9 -3 -14 -6 -10 -10 10 4 37
18 36 10 0 10 -2 1 -6z m-63 -13 c0 -5 -5 -10 -11 -10 -5 0 -7 5 -4 10 3 6 8
10 11 10 2 0 4 -4 4 -10z m183 -39 c-3 -13 -11 -17 -24 -14 -10 3 -19 9 -19
14 0 5 6 6 14 3 8 -3 17 -1 21 5 10 17 14 13 8 -8z m-139 -13 c-8 -28 -12 -33
-20 -25 -9 8 6 47 17 47 6 0 7 -10 3 -22z m106 -29 c0 -5 -4 -9 -10 -9 -5 0
-10 7 -10 16 0 8 5 12 10 9 6 -3 10 -10 10 -16z m10 -39 c0 -5 -7 -10 -15 -10
-8 0 -15 5 -15 10 0 6 7 10 15 10 8 0 15 -4 15 -10z"/>
<path d="M3736 3713 c3 -16 6 -36 8 -45 1 -10 5 -21 9 -24 4 -4 7 -16 7 -26 0
-10 7 -18 18 -18 14 0 15 -2 2 -10 -8 -5 -10 -10 -3 -10 6 0 9 -8 6 -19 -2
-10 -12 -18 -21 -17 -11 1 -17 -7 -17 -19 0 -11 -4 -23 -10 -27 -5 -4 -7 -10
-3 -13 3 -4 29 16 56 43 41 41 52 59 57 96 4 25 12 44 17 43 6 -1 13 4 15 12
4 10 -2 12 -27 6 -26 -6 -32 -4 -37 13 -3 12 -19 26 -35 31 -44 16 -48 14 -42
-16z"/>
<path d="M4050 3730 c0 -5 5 -10 10 -10 6 0 10 -5 10 -11 0 -7 -11 -9 -27 -6
l-28 5 28 -24 c16 -13 32 -24 38 -24 12 0 12 17 -1 25 -7 5 -8 11 -1 19 7 8 4
15 -10 24 -11 7 -19 8 -19 2z"/>
<path d="M1635 3720 c-3 -5 -1 -10 4 -10 6 0 11 5 11 10 0 6 -2 10 -4 10 -3 0
-8 -4 -11 -10z"/>
<path d="M3910 3700 c0 -5 6 -10 14 -10 8 0 18 5 21 10 3 6 -3 10 -14 10 -12
0 -21 -4 -21 -10z"/>
<path d="M4172 3621 c-11 -6 -9 -9 6 -13 15 -4 19 -2 15 8 -6 16 -4 16 -21 5z"/>
<path d="M2205 3537 c-22 -7 -46 -16 -53 -20 -13 -9 -7 -27 9 -27 6 0 7 5 4
10 -3 6 -1 10 4 10 6 0 11 -7 11 -15 0 -9 12 -18 30 -21 50 -10 34 -34 -35
-53 -51 -13 -124 -59 -150 -94 -11 -15 -25 -27 -32 -27 -7 0 -13 -4 -13 -10 0
-5 6 -10 13 -10 8 0 7 -4 -3 -11 -12 -9 -11 -10 5 -4 39 14 159 23 183 14 13
-5 28 -7 33 -3 5 3 9 2 9 -3 0 -4 26 -9 57 -10 88 -2 93 -3 93 -17 0 -31 -179
-66 -218 -42 -6 3 -13 2 -17 -3 -15 -26 163 -25 220 1 24 11 27 14 29 41 1 6
17 17 36 23 27 8 36 17 38 37 3 25 22 39 22 16 0 -5 5 -7 11 -4 13 9 9 93 -5
118 -6 9 -17 17 -24 17 -7 0 -18 14 -23 30 -6 17 -12 30 -13 30 -1 0 -26 9
-56 20 -61 22 -105 24 -165 7z m-35 -147 c0 -5 -5 -10 -11 -10 -5 0 -7 5 -4
10 3 6 8 10 11 10 2 0 4 -4 4 -10z m24 -75 c6 -17 4 -18 -18 -9 -20 8 -21 24
-2 24 8 0 16 -7 20 -15z"/>
<path d="M2908 3535 c-3 -3 -22 -6 -42 -7 -23 -1 -36 -6 -36 -15 0 -7 -7 -16
-16 -20 -14 -5 -13 -9 7 -25 l24 -20 -37 6 c-36 4 -53 -7 -25 -17 6 -2 -1 -3
-16 -1 -16 2 -27 0 -25 -5 2 -4 14 -31 28 -60 24 -50 27 -52 58 -47 29 4 31 3
22 -14 -14 -26 -14 -26 30 -39 22 -6 40 -15 40 -20 0 -4 24 -6 53 -3 83 9 369
8 407 -2 l35 -9 -45 37 c-39 31 -77 52 -245 131 -16 8 -40 15 -53 17 -12 2
-24 7 -25 12 -2 9 25 15 76 17 15 0 27 3 27 7 0 10 -42 36 -60 38 -8 1 -49 12
-90 23 -84 23 -85 23 -92 16z m92 -214 c0 -5 3 -16 6 -25 7 -17 -3 -20 -24 -8
-7 5 -10 16 -6 25 7 18 24 23 24 8z"/>
<path d="M3775 3490 c-10 -11 -14 -20 -9 -20 5 0 15 9 22 20 7 11 11 20 9 20
-2 0 -12 -9 -22 -20z"/>
<path d="M3732 3452 c1 -4 -4 -18 -11 -32 l-14 -25 27 24 c31 29 30 27 11 35
-8 3 -14 2 -13 -2z"/>
<path d="M2395 3230 c-3 -5 3 -10 14 -10 12 0 21 5 21 10 0 6 -6 10 -14 10 -8
0 -18 -4 -21 -10z"/>
<path d="M2862 3223 c6 -30 120 -64 218 -65 47 -1 96 4 110 10 21 9 12 11 -56
10 -77 0 -154 15 -154 31 0 7 -80 31 -106 31 -9 0 -14 -7 -12 -17z"/>
<path d="M3813 3025 c-13 -28 -14 -39 -5 -60 7 -14 12 -36 12 -48 0 -33 47
-97 71 -97 87 0 86 116 -1 208 -40 41 -56 40 -77 -3z"/>
<path d="M1840 3033 c-1 -5 -3 -36 -6 -70 -4 -42 -2 -63 5 -63 7 0 11 27 11
70 0 39 -2 70 -5 70 -3 0 -5 -3 -5 -7z"/>
<path d="M2264 2875 c-17 -7 -44 -29 -60 -49 -16 -20 -33 -36 -38 -36 -18 0
-76 -89 -76 -117 0 -11 7 -13 24 -9 32 8 38 -11 20 -64 -8 -23 -13 -48 -11
-54 3 -6 8 1 12 17 8 29 28 38 24 10 -2 -10 1 -39 5 -65 5 -36 12 -48 25 -48
10 0 21 -3 25 -7 4 -4 14 -8 22 -8 8 0 25 -18 37 -40 12 -22 31 -41 42 -43 11
-2 25 -9 30 -16 23 -28 62 -46 100 -46 22 0 56 -4 75 -10 22 -6 38 -6 44 0 13
13 29 13 21 0 -3 -5 -2 -10 4 -10 5 0 12 4 16 9 3 6 22 9 43 7 63 -4 136 11
197 39 32 14 72 28 88 30 17 2 44 17 61 33 39 36 81 62 99 62 29 0 32 141 5
194 -8 14 -7 17 4 13 7 -2 12 -10 11 -16 -2 -6 3 -11 10 -11 24 0 28 13 10 32
-9 10 -12 18 -7 18 8 0 -11 21 -125 136 -50 50 -91 69 -91 43 0 -6 -7 -8 -15
-5 -10 4 -19 -2 -24 -18 -10 -23 -65 -76 -82 -76 -5 0 -29 5 -53 12 -34 9 -56
9 -101 -1 -48 -11 -56 -16 -53 -34 4 -31 -23 -32 -56 -2 -30 28 -48 33 -40 10
4 -8 12 -15 20 -15 8 0 14 -4 14 -10 0 -17 -25 -11 -50 13 -28 26 -72 57 -82
57 -18 0 -6 -40 14 -51 19 -10 20 -13 6 -23 -20 -15 -12 -36 14 -36 14 0 18
-5 14 -15 -3 -10 1 -15 14 -15 10 0 22 -4 25 -10 3 -5 15 -10 26 -10 10 0 19
-4 19 -9 0 -6 19 -14 43 -19 36 -7 48 -5 85 16 23 13 49 22 57 18 11 -4 13 1
8 26 -6 30 -5 31 21 24 18 -4 25 -3 21 4 -3 5 -2 10 4 10 5 0 13 9 16 20 3 11
12 20 18 20 7 0 34 18 62 40 45 35 52 38 70 26 11 -7 20 -22 21 -33 1 -10 13
-32 28 -47 14 -16 25 -34 24 -40 -2 -18 13 -66 22 -66 10 0 20 -34 26 -83 l5
-39 -88 6 c-48 2 -88 5 -88 6 0 8 -191 16 -290 12 -16 -1 -102 0 -190 1 l-160
2 -3 28 c-3 20 -8 27 -18 23 -12 -4 -12 -2 -4 14 6 11 7 20 3 20 -4 0 -1 6 8
13 11 8 16 27 16 55 0 25 7 50 17 61 9 10 14 24 11 32 -2 8 10 24 30 39 19 14
35 31 35 38 0 6 1 15 3 19 4 12 -39 12 -69 -2z m826 -265 c0 -5 -4 -10 -10
-10 -5 0 -10 5 -10 10 0 6 5 10 10 10 6 0 10 -4 10 -10z m-8 -82 c-8 -8 -9 -4
-5 13 4 13 8 18 11 10 2 -7 -1 -18 -6 -23z m-662 -74 c0 -12 4 -12 21 -2 17
11 22 10 34 -5 13 -18 14 -18 25 2 13 25 47 27 78 5 21 -14 25 -14 35 -1 21
26 65 27 86 1 17 -22 18 -22 34 -4 19 23 45 17 57 -14 7 -20 8 -20 15 6 15 57
65 37 65 -26 -1 -32 -20 -66 -37 -66 -6 0 -16 7 -24 16 -12 14 -14 14 -25 -1
-9 -12 -23 -16 -48 -13 -20 2 -36 0 -36 -5 0 -18 -219 1 -261 23 -9 5 -26 6
-37 3 -15 -3 -22 1 -27 19 -5 12 -15 28 -23 34 -9 6 -12 16 -7 24 6 10 9 9 16
-1 6 -10 11 -6 19 15 9 23 13 26 25 16 8 -7 15 -19 15 -26z m507 -39 c-4 -8
-14 -15 -23 -15 -16 0 -16 2 1 20 20 22 31 20 22 -5z"/>
<path d="M3767 2812 c-20 -22 -22 -42 -4 -42 13 0 36 21 51 48 11 19 -29 15
-47 -6z"/>
<path d="M4160 2653 c-44 -49 -75 -69 -37 -24 15 18 27 37 27 42 0 5 -40 9
-88 9 l-88 0 -44 -46 c-57 -58 -88 -74 -143 -74 -49 0 -71 17 -83 64 -9 38
-18 20 -33 -66 -10 -59 -9 -71 5 -93 15 -23 16 -48 9 -219 l-7 -193 35 -16
c43 -21 76 -21 101 -2 11 8 34 15 51 15 55 0 225 76 225 101 0 5 11 9 25 9 21
0 25 5 25 28 0 59 13 106 36 130 17 16 24 15 47 -5 19 -17 19 -17 12 6 -4 12
-10 48 -14 78 -11 78 -22 82 -109 40 -52 -25 -59 -34 -32 -42 26 -8 34 -43 21
-90 -6 -21 -8 -42 -5 -47 3 -4 -2 -11 -10 -14 -9 -3 -16 -14 -16 -24 0 -10
-15 -28 -34 -39 -40 -25 -46 -26 -46 -6 0 8 4 15 8 15 5 0 9 14 9 30 0 40 17
58 38 40 18 -15 20 -1 3 35 -9 21 -9 31 1 47 10 17 10 23 -4 38 -15 16 -14 19
10 38 38 30 69 73 59 80 -13 10 -17 34 -6 41 5 3 21 24 35 46 15 22 34 50 43
62 29 41 9 45 -26 6z m30 -239 c0 -8 -5 -12 -10 -9 -6 4 -8 11 -5 16 9 14 15
11 15 -7z"/>
<path d="M3170 2623 c0 -4 14 -24 30 -43 21 -24 30 -30 30 -18 0 9 -7 23 -15
30 -34 31 -45 38 -45 31z"/>
<path d="M1 1293 l-1 -1293 1293 2 c710 0 1265 4 1232 8 -228 26 -587 114
-730 180 -11 5 -58 25 -105 45 -198 85 -407 210 -605 363 -116 90 -369 333
-432 417 -39 52 -56 72 -85 107 -10 12 -39 53 -65 92 -27 39 -51 73 -54 76 -3
3 -14 21 -24 40 -9 19 -23 42 -30 50 -17 19 -155 290 -179 350 -107 267 -181
548 -206 782 -4 40 -8 -509 -9 -1219z"/>
<path d="M5665 2513 c-14 -134 -58 -358 -90 -465 -27 -86 -66 -201 -75 -223
-5 -11 -23 -54 -40 -95 -95 -227 -235 -464 -397 -668 -139 -175 -395 -417
-568 -538 -125 -87 -143 -98 -250 -160 -35 -20 -218 -112 -265 -132 -258 -113
-507 -180 -825 -221 -33 -5 522 -9 1233 -10 l1292 -1 0 1290 c0 710 -2 1290
-4 1290 -3 0 -8 -30 -11 -67z"/>
<path d="M1940 2356 c0 -9 7 -16 16 -16 17 0 14 22 -4 28 -7 2 -12 -3 -12 -12z"/>
<path d="M2400 2250 c0 -16 67 -42 98 -38 15 2 28 10 30 19 3 14 -7 17 -53 18
-31 0 -60 3 -65 6 -6 3 -10 1 -10 -5z"/>
<path d="M2650 2220 c0 -16 -5 -19 -22 -16 -64 13 -85 13 -107 2 -34 -19 -5
-27 58 -17 32 5 52 4 54 -2 2 -6 14 -3 29 7 14 9 33 14 42 10 12 -4 16 0 16
15 0 17 -6 21 -35 21 -28 0 -35 -4 -35 -20z"/>
<path d="M2589 2143 c-18 -4 -34 -43 -18 -43 5 0 9 7 9 15 0 8 6 15 14 15 8 0
18 5 21 10 6 10 2 11 -26 3z"/>
<path d="M3700 1973 c0 -17 30 -83 56 -124 l24 -39 48 26 c130 70 179 103 133
89 -16 -5 -21 -4 -17 4 4 6 -5 13 -21 16 -15 3 -44 10 -63 15 -61 16 -160 23
-160 13z m206 -80 c-11 -11 -19 6 -11 24 8 17 8 17 12 0 3 -10 2 -21 -1 -24z"/>
<path d="M3069 1818 c-32 -31 -176 -108 -253 -136 -46 -17 -58 -18 -62 -7 -8
20 -44 14 -44 -7 0 -10 -6 -18 -14 -18 -22 0 -29 -19 -15 -38 11 -14 11 -15
-1 -4 -8 6 -23 12 -34 12 -19 -1 -19 -1 -3 -11 21 -12 22 -29 1 -29 -14 0 -14
-2 0 -15 10 -11 13 -26 9 -45 -3 -20 -1 -30 6 -30 7 0 9 5 6 10 -3 6 -1 10 4
10 6 0 11 -7 11 -15 0 -10 10 -15 28 -15 26 0 28 3 24 30 -3 22 0 30 11 30 9
0 19 -9 22 -20 3 -11 11 -20 18 -20 8 0 8 3 -1 12 -17 17 -16 22 19 47 18 13
29 19 26 14 -4 -6 12 -10 38 -10 48 0 67 -9 46 -22 -17 -11 19 -22 77 -25 49
-2 89 28 72 54 -15 24 -12 32 9 20 13 -7 22 -7 26 0 3 5 -1 10 -9 10 -9 0 -16
5 -16 10 0 6 -8 10 -17 10 -16 1 -16 2 1 15 15 11 23 12 33 3 11 -9 13 -8 11
3 -2 8 5 14 17 14 13 0 21 8 23 21 2 16 -4 23 -25 29 -31 7 -43 21 -43 49 0
13 5 16 17 12 9 -4 20 -1 24 6 6 10 12 8 23 -7 15 -19 15 -19 16 11 0 22 -6
33 -17 37 -10 2 -25 8 -34 11 -9 4 -23 1 -30 -6z m51 -138 c0 -5 -7 -10 -15
-10 -8 0 -15 5 -15 10 0 6 7 10 15 10 8 0 15 -4 15 -10z m-110 -4 c0 -3 -4 -8
-10 -11 -5 -3 -10 -1 -10 4 0 6 5 11 10 11 6 0 10 -2 10 -4z m-150 -42 c0 -14
-3 -14 -15 -4 -8 7 -15 14 -15 16 0 2 7 4 15 4 8 0 15 -7 15 -16z m90 -38 c0
-2 -7 -6 -15 -10 -8 -3 -15 -1 -15 4 0 6 7 10 15 10 8 0 15 -2 15 -4z"/>
<path d="M3185 1780 c3 -5 8 -10 11 -10 2 0 4 5 4 10 0 6 -5 10 -11 10 -5 0
-7 -4 -4 -10z"/>
<path d="M2539 1759 c-10 -6 -7 -9 14 -9 29 0 35 5 14 13 -8 3 -20 1 -28 -4z"/>
<path d="M3130 1730 c-13 -8 -12 -10 3 -10 11 0 17 -8 17 -25 0 -14 5 -25 10
-25 6 0 10 13 10 29 0 23 5 31 23 34 14 3 10 5 -13 5 -19 1 -42 -3 -50 -8z"/>
<path d="M2346 1559 c-4 -14 -3 -50 3 -80 6 -30 13 -72 16 -94 3 -22 12 -69
20 -105 8 -36 17 -77 20 -92 3 -15 30 -51 60 -81 48 -47 55 -59 55 -93 0 -22
4 -44 9 -50 5 -5 18 -43 31 -84 12 -41 28 -91 35 -112 8 -20 19 -67 26 -105 9
-52 14 -63 20 -48 15 34 37 209 28 220 -4 6 -8 20 -7 30 0 11 -12 47 -27 80
-16 33 -28 64 -26 68 1 5 -18 36 -42 70 -24 34 -42 68 -40 75 3 6 -2 12 -10
12 -17 0 -47 32 -47 51 0 7 -11 43 -24 79 -14 36 -40 115 -59 175 -28 92 -35
106 -41 84z"/>
<path d="M3078 1529 c-13 -13 -14 -19 -5 -19 14 0 37 20 37 32 0 13 -14 8 -32
-13z"/>
<path d="M3000 1480 c0 -5 5 -10 10 -10 6 0 10 5 10 10 0 6 -4 10 -10 10 -5 0
-10 -4 -10 -10z"/>
<path d="M2825 1445 c-19 -15 -18 -15 15 -13 19 2 34 8 33 13 -3 17 -27 17
-48 0z"/>
<path d="M3150 1425 c-13 -16 -3 -20 24 -9 9 3 13 10 10 15 -8 13 -20 11 -34
-6z"/>
</g>
</svg>
